# xmcd CD database file
#
# Track frame offsets:
#	150
#	2668
#	10752
#	18535
#	25917
#	33352
#	40137
#	47554
#	54598
#	58108
#	64256
#	71934
#	78863
#	83274
#	89906
#	97795
#	106684
#	114164
#	118678
#	122750
#	126390
#	134318
#	142408
#	149987
#	157064
#	164626
#	170296
#	177961
#	180508
#	186974
#	194124
#	202393
#	206061
#	209996
#	217981
#	226245
#	233879
#	238665
#	245090
#	252420
#	261571
#	270476
#	277995
#	285770
#	289352
#	295865
#	304285
#	312372
#	320797
#	326664
#	336494
#	340126
#	344706
#
# Disc length: 4671 seconds
#
# Revision: 3
# Processed by: cddbd v1.5.2PL0 Copyright (c) Steve Scherf et al.
# Submitted via: CDex 1.70beta3
#
DISCID=50123d35
DTITLE=中川幸太郎, 鳴瀬シュウヘイ - KAMEN RIDER DOUBLE SPECIAL CD-BOX [CD-3]
DYEAR=2010
DGENRE=Soundtrack
TTITLE0=今までのダブルは
TTITLE1=俺たち二人で一人
TTITLE2=Wのチェンジ
TTITLE3=空中バトル
TTITLE4=出撃リボルギャリー
TTITLE5=大阪の女
TTITLE6=ルンルン風都
TTITLE7=探偵のルンバ
TTITLE8=オタオタ探偵
TTITLE9=事件だー！
TTITLE10=探偵とは
TTITLE11=大追跡
TTITLE12=捜査
TTITLE13=地球（ほし）の本棚
TTITLE14=謎解き
TTITLE15=闇の家族
TTITLE16=ドーパント
TTITLE17=ミラクルワールド
TTITLE18=ミステリーワールド
TTITLE19=パニックワールド
TTITLE20=巨大化
TTITLE21=大乱戦
TTITLE22=メタルブランディング
TTITLE23=ハードブレイク
TTITLE24=攻勢
TTITLE25=苦戦
TTITLE26=ハードボイルド
TTITLE27=今夜の依頼は
TTITLE28=夜霧の探偵
TTITLE29=華麗な一族
TTITLE30=闇の儀式
TTITLE31=大々的タネアカシ
TTITLE32=出現
TTITLE33=攻撃
TTITLE34=侵略
TTITLE35=暗躍
TTITLE36=袋小路
TTITLE37=浪花の心意気
TTITLE38=父への想い
TTITLE39=闇の戦い
TTITLE40=闇の歴史
TTITLE41=闇の暗躍
TTITLE42=闇の系図
TTITLE43=ねた無し探偵
TTITLE44=ハーフボイルド
TTITLE45=ダブルメカ
TTITLE46=犯人の心情
TTITLE47=真実
TTITLE48=おやっさん
TTITLE49=探偵はハードボイルド
TTITLE50=ハートフル
TTITLE51=浄化
TTITLE52=上木彩矢 W TAKUYA/W-B-X～W-Boiled Extreme～TV Size Edit.
EXTD=YEAR: 2010
EXTT0=
EXTT1=
EXTT2=
EXTT3=
EXTT4=
EXTT5=
EXTT6=
EXTT7=
EXTT8=
EXTT9=
EXTT10=
EXTT11=
EXTT12=
EXTT13=
EXTT14=
EXTT15=
EXTT16=
EXTT17=
EXTT18=
EXTT19=
EXTT20=
EXTT21=
EXTT22=
EXTT23=
EXTT24=
EXTT25=
EXTT26=
EXTT27=
EXTT28=
EXTT29=
EXTT30=
EXTT31=
EXTT32=
EXTT33=
EXTT34=
EXTT35=
EXTT36=
EXTT37=
EXTT38=
EXTT39=
EXTT40=
EXTT41=
EXTT42=
EXTT43=
EXTT44=
EXTT45=
EXTT46=
EXTT47=
EXTT48=
EXTT49=
EXTT50=
EXTT51=
EXTT52=
PLAYORDER=
